<svg id="Layer_1" data-name="Layer 1" xmlns="http://www.w3.org/2000/svg" viewBox="0 0 240.43 117.62"><defs><style>.cls-1{fill:#2a6ca3;}.cls-2{fill:#f5aa33;}.cls-3{font-size:40.44px;fill:#2e3192;letter-spacing:0.11em;}.cls-11,.cls-3{font-family:ThePincherBrothers-Sans, The Pincher Brothers;}.cls-4{letter-spacing:0.01em;}.cls-5{letter-spacing:0.1em;}.cls-6{letter-spacing:0.1em;}.cls-7{letter-spacing:0.12em;}.cls-10,.cls-8,.cls-9{fill:#fbb040;}.cls-8{letter-spacing:0.11em;}.cls-9{letter-spacing:0.03em;}.cls-11{font-size:18.05px;fill:#231f20;letter-spacing:0.12em;}.cls-12{letter-spacing:0.13em;}.cls-13{letter-spacing:0.11em;}.cls-14{letter-spacing:0.13em;}.cls-15{letter-spacing:0.13em;}.cls-16{letter-spacing:0.12em;}.cls-17{letter-spacing:0.14em;}.cls-18{letter-spacing:0.11em;}.cls-19{letter-spacing:0.14em;}.cls-20{letter-spacing:0.14em;}.cls-21{letter-spacing:0.04em;}.cls-22{letter-spacing:0.13em;}</style></defs><title>LOGO</title><path class="cls-1" d="M170,122.21s-.56-4.49-9.8-8.61a2,2,0,0,1-.58-.37c-1-.91-4.21-4.37-1.35-9.84,0,0-.16,7,5.28,9a4.64,4.64,0,0,1,1.91-3.86,13.94,13.94,0,0,0-.37,3.21,2.1,2.1,0,0,0,.49,1.19C166.71,114.29,170.37,118.92,170,122.21Z" transform="translate(-39.79 -101.19)"/><path class="cls-2" d="M160.3,132s4.72,9.59,14.45-.57c0,0,13-16.45,25.33-16.45,0,0,25.47.85,33.77-12.17,0,0-3,8.94-15.93,14.16a16.39,16.39,0,0,1-6.57,1.18c-5.64-.11-16.26,1.25-21.87,5.18-1,.7-1.42,1.75-2.26,2.5-2.41,2.14-7.35,6.39-13.07,10.54a10.22,10.22,0,0,1-5.78,2.05,8.25,8.25,0,0,1-4.28-1.05S159.65,135.32,160.3,132Z" transform="translate(-39.79 -101.19)"/><path class="cls-2" d="M206.16,125.62s17.92,2.4,28.65-15.7c0,0,.54,10.34-16.74,17.74,0,0,7.17,1.32,9.8,1.05C227.87,128.71,214.91,136,206.16,125.62Z" transform="translate(-39.79 -101.19)"/><path class="cls-2" d="M106,125.62S88.1,128,77.37,109.92c0,0-.54,10.34,16.74,17.74,0,0-7.16,1.32-9.79,1.05C84.32,128.71,97.28,136,106,125.62Z" transform="translate(-39.79 -101.19)"/><path class="cls-2" d="M70.43,140.15s-18.08.61-27-18.47c0,0-1.56,10.23,14.9,19.32,0,0-7.26.59-9.85.07C48.52,141.07,60.69,149.64,70.43,140.15Z" transform="translate(-39.79 -101.19)"/><path class="cls-1" d="M247.53,124s17.6-3.36,26.11-15.89c0,0-2.83,9.7-17.92,16.57,0,0,5.61.5,7.87,0C263.59,124.67,253.11,129.32,247.53,124Z" transform="translate(-39.79 -101.19)"/><path class="cls-1" d="M234.94,127.85a18.88,18.88,0,0,0,9.51,3.29c5.22.15,13,.22,14.1-.93a25.8,25.8,0,0,1-11.24,3.87S239.16,134.86,234.94,127.85Z" transform="translate(-39.79 -101.19)"/><path class="cls-2" d="M65.87,145.58a18.94,18.94,0,0,0,10.07-.16c5-1.65,12.31-4.25,12.92-5.69a25.92,25.92,0,0,1-9.23,7.47S72.23,150.72,65.87,145.58Z" transform="translate(-39.79 -101.19)"/><path class="cls-2" d="M91.79,143.45s8.66-.1,13.08-4A10.89,10.89,0,0,1,91.79,143.45Z" transform="translate(-39.79 -101.19)"/><path class="cls-1" d="M225.79,133.21s7,5.06,12.9,4.56A10.91,10.91,0,0,1,225.79,133.21Z" transform="translate(-39.79 -101.19)"/><path class="cls-1" d="M166.73,130.08l-.61-.11a7.67,7.67,0,0,1-5.29-1.52,11.3,11.3,0,0,0,1.63-.16,2.18,2.18,0,0,0,1.8-2.14v-1a4.18,4.18,0,0,0-2.12-3.72c-1.2-.64-2.78-.77-4.8.64,0,0-2.31.48-1.29,7.4,0,0,1.81,5.57-4,9.43a3.21,3.21,0,0,1-.88.41c-1.44.43-6.47,2.27-10.23-.77a11.83,11.83,0,0,1-1.44-1.11c-2.6-2.94-12.94-14.41-17.43-15.25a97.82,97.82,0,0,0-19.45-3.07A17.08,17.08,0,0,1,96.84,118c-3.15-1.26-7.94-3.45-11.14-6.19a10.67,10.67,0,0,1-1.5-1.58c-1.41-1.73-4.36-5.51-4.28-6.77,0,0,10.44,10.94,24.13,12.66a26.35,26.35,0,0,0,4.17.12c4.43-.15,18.43.45,27.5,13.48.12.16.24.32.37.47,1.76,2.11,13.79,15.78,17.67,1.32a7.32,7.32,0,0,0-.24-4.39c-.72-2-1.16-5.51,2.53-8.64,0,0-9.28-2.38-9.28-10.22V108s.11-4.72,2-6.82c0,0-.22,12.08,8.2,15.19a27.3,27.3,0,0,1,7.4,4.33,5.59,5.59,0,0,1,1.86,3.9c.12,1.75.26,4.08.26,4.89Z" transform="translate(-39.79 -101.19)"/><text class="cls-3" transform="translate(0 82.97)">U<tspan class="cls-4" x="34.05" y="0">L</tspan><tspan class="cls-5" x="59.33" y="0">T</tspan><tspan class="cls-6" x="89.46" y="0">R</tspan><tspan class="cls-7" x="120.76" y="0">A</tspan><tspan class="cls-8" x="153.11" y="0">F</tspan><tspan class="cls-9" x="182.23" y="0">L</tspan><tspan class="cls-10" x="208.32" y="0">Y</tspan></text><text class="cls-11" transform="translate(0 108.59)">S<tspan class="cls-12" x="14.13" y="0">o</tspan><tspan class="cls-13" x="31.29" y="0">l</tspan><tspan x="44.41" y="0">u</tspan><tspan class="cls-14" x="59.8" y="0">t</tspan><tspan class="cls-15" x="73.81" y="0">io</tspan><tspan class="cls-16" x="99.22" y="0">n</tspan><tspan class="cls-17" x="114.43" y="0">s </tspan><tspan class="cls-18" x="136.88" y="0">p</tspan><tspan class="cls-19" x="150.9" y="0">v</tspan><tspan class="cls-20" x="165.66" y="0">t </tspan><tspan class="cls-21" x="187.84" y="0">l</tspan><tspan class="cls-22" x="199.68" y="0">t</tspan><tspan class="cls-17" x="213.68" y="0">d</tspan></text><circle class="cls-2" cx="120.75" cy="23.41" r="1.14"/></svg>